<?xml version="1.0" encoding="UTF-8" standalone="no"?>
<svg
   xmlns:dc="http://purl.org/dc/elements/1.1/"
   xmlns:cc="http://creativecommons.org/ns#"
   xmlns:rdf="http://www.w3.org/1999/02/22-rdf-syntax-ns#"
   xmlns:svg="http://www.w3.org/2000/svg"
   xmlns="http://www.w3.org/2000/svg"
   xmlns:sodipodi="http://sodipodi.sourceforge.net/DTD/sodipodi-0.dtd"
   xmlns:inkscape="http://www.inkscape.org/namespaces/inkscape"
   width="48"
   height="48"
   viewBox="0 0 12.7 12.7"
   version="1.1"
   id="svg8"
   sodipodi:docname="Chicken_kanji.svg"
   inkscape:version="0.92.2 5c3e80d, 2017-08-06">
  <sodipodi:namedview
     pagecolor="#ffffff"
     bordercolor="#666666"
     borderopacity="1"
     objecttolerance="10"
     gridtolerance="10"
     guidetolerance="10"
     inkscape:pageopacity="0"
     inkscape:pageshadow="2"
     inkscape:window-width="1896"
     inkscape:window-height="1012"
     id="namedview3702"
     showgrid="true"
     inkscape:snap-bbox="false"
     showguides="true"
     inkscape:zoom="16"
     inkscape:cx="24.773937"
     inkscape:cy="29.599586"
     inkscape:window-x="10"
     inkscape:window-y="28"
     inkscape:window-maximized="0"
     inkscape:current-layer="svg8">
    <inkscape:grid
       type="xygrid"
       id="grid3806" />
  </sodipodi:namedview>
  <defs
     id="defs2">
    <inkscape:perspective
       sodipodi:type="inkscape:persp3d"
       inkscape:vp_x="0 : 6.35 : 1"
       inkscape:vp_y="0 : 1000 : 0"
       inkscape:vp_z="12.7 : 6.35 : 1"
       inkscape:persp3d-origin="6.35 : 4.2333333 : 1"
       id="perspective3708" />
  </defs>
  <metadata
     id="metadata5">
    <rdf:RDF>
      <cc:Work
         rdf:about="">
        <dc:format>image/svg+xml</dc:format>
        <dc:type
           rdf:resource="http://purl.org/dc/dcmitype/StillImage" />
        <dc:title></dc:title>
      </cc:Work>
    </rdf:RDF>
  </metadata>
  <g
     aria-label="é¶"
     style="font-style:normal;font-weight:normal;font-size:10.58333302px;line-height:1.25;font-family:sans-serif;letter-spacing:0px;word-spacing:0px;fill:#000000;fill-opacity:1;stroke:none;stroke-width:0.26458332"
     id="text4188">
    <path
       d="M 7.5488932,1.5957682 8.3757161,1.7611328 8.1276692,2.4639323 h 2.3151038 v 3.141927 H 7.0941406 v 0.578776 H 11.062891 V 6.8460936 H 7.0941406 v 0.578776 h 3.9687504 q -0.08268,2.6044924 -0.372071,3.1419274 -0.289388,0.537434 -1.0335284,0.537434 -0.2480469,0 -0.8268229,-0.124023 L 8.7064453,10.277409 q 0.6614583,0.08268 0.868164,0.08268 0.3720703,0 0.4547527,-0.206706 0.124023,-0.2480467 0.248047,-2.1083982 H 6.3086589 V 2.4639323 H 7.3008463 Q 7.4662109,2.0091797 7.5488932,1.5957682 Z M 7.0941406,3.0840494 v 0.6614584 h 2.563151 V 3.0840494 Z m 0,1.2402344 v 0.6614583 h 2.563151 V 4.3242838 Z M 9.4505859,8.2103514 Q 9.781315,8.7891274 9.9880207,9.4919268 L 9.4505859,9.7399737 Q 9.2438801,9.0371743 8.9544921,8.4997394 Z M 8.6651041,8.4170571 Q 8.9958333,9.2025388 9.1198567,9.9466794 L 8.4583984,10.153385 Q 8.3757161,9.2852211 8.0863281,8.5824217 Z M 6.35,8.4583982 7.0114583,8.6237628 Q 6.8047526,9.9053383 6.5980469,10.732161 L 5.8952474,10.525455 Q 6.1846354,9.4919268 6.35,8.4583982 Z m 1.4882812,0.041341 q 0.2480469,0.868164 0.2480469,1.9016926 l -0.6614583,0.04134 q 0,-1.1162107 -0.2067057,-1.8603513 z M 5.481836,1.7197917 5.8952474,2.38125 Q 4.2829428,2.8773437 2.0091798,3.0013671 L 1.761133,2.2572265 q 1.9016926,0 3.720703,-0.5374348 z M 5.2751303,2.7533203 6.0192709,3.0013671 Q 5.6472006,4.3656249 5.1511068,5.2751301 L 4.5309897,4.9444009 Q 5.0270834,3.82819 5.2751303,2.7533203 Z M 3.7868491,3.0013671 q 0.3307291,0.6201172 0.578776,1.3642578 L 3.7041668,4.7376952 Q 3.497461,4.0348958 3.1253907,3.3734374 Z M 2.5052736,3.2080729 Q 2.918685,3.9522135 3.208073,4.8203775 L 2.5466147,5.1924478 Q 2.2985679,4.3656249 1.8024741,3.6214843 Z M 3.8695313,9.24388 Q 3.3320965,10.484114 2.0918621,11.104231 L 1.6371095,10.360091 Q 3.0427085,9.5746091 3.3320965,8.2103514 H 1.761133 V 7.5075519 H 3.4561199 Q 3.497461,7.1354816 3.497461,6.7220702 V 6.391341 H 2.0091798 V 5.6885415 H 3.497461 V 4.9857421 H 4.2829428 V 5.6885415 H 5.6472006 V 6.391341 H 4.2829428 q 0,0.7854818 -0.041341,1.1162109 H 5.9779297 V 8.2103514 H 4.1589194 L 4.1175782,8.5410805 Q 4.9857423,9.2025388 5.6885417,10.029362 L 5.1511068,10.69082 Q 4.5309897,9.8639972 3.8695313,9.24388 Z"
       style="stroke-width:0.26458332"
       id="path4190" />
  </g>
</svg>
