<?xml version="1.0" encoding="UTF-8" standalone="no"?>
<svg
   xmlns:dc="http://purl.org/dc/elements/1.1/"
   xmlns:cc="http://creativecommons.org/ns#"
   xmlns:rdf="http://www.w3.org/1999/02/22-rdf-syntax-ns#"
   xmlns:svg="http://www.w3.org/2000/svg"
   xmlns="http://www.w3.org/2000/svg"
   xmlns:sodipodi="http://sodipodi.sourceforge.net/DTD/sodipodi-0.dtd"
   xmlns:inkscape="http://www.inkscape.org/namespaces/inkscape"
   width="48"
   height="48"
   viewBox="0 0 12.7 12.7"
   version="1.1"
   id="svg8"
   sodipodi:docname="Chick_kanji.svg"
   inkscape:version="0.92.2 5c3e80d, 2017-08-06">
  <sodipodi:namedview
     pagecolor="#ffffff"
     bordercolor="#666666"
     borderopacity="1"
     objecttolerance="10"
     gridtolerance="10"
     guidetolerance="10"
     inkscape:pageopacity="0"
     inkscape:pageshadow="2"
     inkscape:window-width="1896"
     inkscape:window-height="1012"
     id="namedview3702"
     showgrid="true"
     inkscape:snap-bbox="false"
     showguides="true"
     inkscape:zoom="22.627417"
     inkscape:cx="16.659732"
     inkscape:cy="24.312901"
     inkscape:window-x="10"
     inkscape:window-y="28"
     inkscape:window-maximized="0"
     inkscape:current-layer="svg8">
    <inkscape:grid
       type="xygrid"
       id="grid3806" />
  </sodipodi:namedview>
  <defs
     id="defs2">
    <inkscape:perspective
       sodipodi:type="inkscape:persp3d"
       inkscape:vp_x="0 : 6.35 : 1"
       inkscape:vp_y="0 : 1000 : 0"
       inkscape:vp_z="12.7 : 6.35 : 1"
       inkscape:persp3d-origin="6.35 : 4.2333333 : 1"
       id="perspective3708" />
  </defs>
  <metadata
     id="metadata5">
    <rdf:RDF>
      <cc:Work
         rdf:about="">
        <dc:format>image/svg+xml</dc:format>
        <dc:type
           rdf:resource="http://purl.org/dc/dcmitype/StillImage" />
        <dc:title></dc:title>
      </cc:Work>
    </rdf:RDF>
  </metadata>
  <g
     aria-label="雛"
     style="font-style:normal;font-weight:normal;font-size:10.58333302px;line-height:1.25;font-family:sans-serif;letter-spacing:0px;word-spacing:0px;fill:#000000;fill-opacity:1;stroke:none;stroke-width:0.26458332"
     id="text4214">
    <path
       d="M 7.6729166,1.6371091 8.4583984,1.8851559 C 8.3205945,2.3812496 8.1690103,2.863563 8.0036458,3.332096 H 9.2438801 C 9.1060763,2.8084415 8.913151,2.3261281 8.6651041,1.8851559 L 9.491927,1.6371091 C 9.7675346,2.1607636 9.9742403,2.7257592 10.112044,3.332096 H 11.06289 V 4.1175777 H 9.7399738 V 5.4404944 H 10.856185 V 6.2259761 H 9.7399738 V 7.5488927 H 10.856185 V 8.3343745 H 9.7399738 V 9.6572911 H 11.186914 V 10.442773 H 7.9209635 v 0.702799 H 7.1768229 V 5.2751298 L 6.6807291,6.0606115 6.2673177,5.3578121 C 6.928776,4.1726993 7.397309,2.932465 7.6729166,1.6371091 Z M 8.9958332,5.4404944 V 4.1175777 H 7.9209635 v 1.3229167 z m 0,2.1083983 V 6.2259761 H 7.9209635 V 7.5488927 Z M 7.9209635,9.6572911 H 8.9958332 V 8.3343745 H 7.9209635 Z M 2.7119793,1.5544268 3.4147787,1.7197913 C 3.3320964,1.9127167 3.2356338,2.0918617 3.1253907,2.2572262 h 3.0592447 c 0,2.094618 -0.082682,3.3348523 -0.2480469,3.720703 -0.1653645,0.3582899 -0.4685329,0.5374349 -0.9095051,0.5374349 -0.1653646,0 -0.35829,-0.041341 -0.5787761,-0.1240234 L 4.2829428,5.6885412 c 0.3582899,0.082682 0.6063367,0.1240235 0.7441406,0.1240235 0.1378038,0 0.2342665,-0.1240234 0.289388,-0.3720703 0.055121,-0.2756077 0.082682,-1.1024306 0.082682,-2.4804687 H 2.6706381 C 2.4777128,3.2080726 2.2572267,3.4285587 2.0091798,3.621484 L 1.5130861,3.0840491 C 2.0367406,2.6430769 2.4363716,2.1332028 2.7119793,1.5544268 Z M 3.3320964,3.2080726 H 3.96875 l -0.099218,1.157552 H 4.365625 V 3.5388017 H 5.0270834 V 5.0270829 H 3.7041667 C 3.4836806,5.5782982 3.0289281,6.00549 2.339909,6.3086584 L 1.8851564,5.7298824 C 2.3536893,5.5369571 2.6981989,5.3026906 2.918685,5.0270829 H 2.2572267 V 3.5388017 H 2.918685 V 4.3656246 H 3.208073 C 3.2907553,4.0624562 3.3320964,3.6766055 3.3320964,3.2080726 Z M 2.7119793,6.184635 3.4147787,6.3499995 C 3.3320964,6.5429249 3.2356338,6.7358503 3.1253907,6.9287756 h 3.0592447 c 0,2.0946183 -0.082682,3.3210724 -0.2480469,3.6793614 -0.1653645,0.35829 -0.4685329,0.537435 -0.9095051,0.537435 -0.1653646,0 -0.35829,-0.04134 -0.5787761,-0.124023 l -0.1653645,-0.7028 c 0.3582899,0.08268 0.6063367,0.124024 0.7441406,0.124024 0.1378038,0 0.2342665,-0.124023 0.289388,-0.37207 0.055121,-0.2480471 0.082682,-1.0610898 0.082682,-2.439128 H 2.6706381 C 2.4777128,7.8796219 2.2572267,8.100108 2.0091798,8.2930333 L 1.5130861,7.7142573 C 2.0367406,7.3008458 2.4363716,6.7909717 2.7119793,6.184635 Z M 3.3320964,7.8796219 H 3.96875 l -0.099218,1.157552 H 4.365625 V 8.210351 H 5.0270834 V 9.6572911 H 3.7041667 C 3.4836806,10.208506 3.0289281,10.635698 2.339909,10.938867 L 1.8851564,10.360091 C 2.3536893,10.167166 2.6981989,9.932899 2.918685,9.6572911 H 2.2572267 V 8.210351 H 2.918685 V 9.0371739 H 3.208073 C 3.290755,8.7340056 3.3320964,8.3481549 3.3320964,7.8796219 Z"
       style="stroke-width:0.26458332"
       id="path4238"
       inkscape:connector-curvature="0"
       sodipodi:nodetypes="ccccccccccccccccccccccccccccccccccccccccccccccccsccscccccccccccccccccccccccccccssccsccccccccccccccccccccccc" />
  </g>
</svg>
