<?xml version="1.0" encoding="UTF-8" standalone="no"?>
<svg
   xmlns:dc="http://purl.org/dc/elements/1.1/"
   xmlns:cc="http://creativecommons.org/ns#"
   xmlns:rdf="http://www.w3.org/1999/02/22-rdf-syntax-ns#"
   xmlns:svg="http://www.w3.org/2000/svg"
   xmlns="http://www.w3.org/2000/svg"
   xmlns:sodipodi="http://sodipodi.sourceforge.net/DTD/sodipodi-0.dtd"
   xmlns:inkscape="http://www.inkscape.org/namespaces/inkscape"
   width="48"
   height="48"
   viewBox="0 0 12.7 12.7"
   version="1.1"
   id="svg8"
   sodipodi:docname="Elephant_kanji.svg"
   inkscape:version="0.92.2 5c3e80d, 2017-08-06">
  <sodipodi:namedview
     pagecolor="#ffffff"
     bordercolor="#666666"
     borderopacity="1"
     objecttolerance="10"
     gridtolerance="10"
     guidetolerance="10"
     inkscape:pageopacity="0"
     inkscape:pageshadow="2"
     inkscape:window-width="1896"
     inkscape:window-height="1012"
     id="namedview3702"
     showgrid="true"
     inkscape:snap-bbox="false"
     showguides="true"
     inkscape:zoom="16"
     inkscape:cx="21.498967"
     inkscape:cy="22.195778"
     inkscape:window-x="10"
     inkscape:window-y="28"
     inkscape:window-maximized="0"
     inkscape:current-layer="svg8">
    <inkscape:grid
       type="xygrid"
       id="grid3806" />
  </sodipodi:namedview>
  <defs
     id="defs2">
    <inkscape:perspective
       sodipodi:type="inkscape:persp3d"
       inkscape:vp_x="0 : 6.35 : 1"
       inkscape:vp_y="0 : 1000 : 0"
       inkscape:vp_z="12.7 : 6.35 : 1"
       inkscape:persp3d-origin="6.35 : 4.2333333 : 1"
       id="perspective3708" />
  </defs>
  <metadata
     id="metadata5">
    <rdf:RDF>
      <cc:Work
         rdf:about="">
        <dc:format>image/svg+xml</dc:format>
        <dc:type
           rdf:resource="http://purl.org/dc/dcmitype/StillImage" />
        <dc:title></dc:title>
      </cc:Work>
    </rdf:RDF>
  </metadata>
  <g
     aria-label="象"
     style="font-style:normal;font-weight:normal;font-size:11.28888893px;line-height:1.25;font-family:sans-serif;letter-spacing:0px;word-spacing:0px;fill:#000000;fill-opacity:1;stroke:none;stroke-width:0.26458332"
     id="text4117">
    <path
       d="M 4.2829428,1.4924151 5.1097656,1.6577796 Q 4.9444011,1.9885088 4.7376953,2.2778968 H 8.2930338 V 2.898014 Q 7.9623046,3.3527666 7.5902343,3.6834957 h 2.6044917 v 2.273763 H 6.2259765 Q 6.9701172,6.6600581 7.218164,7.6109045 8.5410806,7.1148107 9.5746093,6.329329 L 10.153385,6.9494461 Q 9.491927,7.4041987 8.7891275,7.7349279 9.2438801,9.3472325 11.104232,10.256738 l -0.537435,0.702799 Q 8.6651041,9.8846674 8.0863281,8.065657 7.7142578,8.2310216 7.3421875,8.3550451 q 0.041341,0.3307291 0.041341,0.7027994 0,1.0748695 -0.3307292,1.6123045 -0.3307291,0.537435 -1.0335286,0.537435 -0.4547526,0 -1.1988932,-0.124023 L 4.6136719,10.256738 q 0.7854818,0.165364 1.4055989,0.165364 0.2480469,0 0.3720703,-0.330729 Q 6.5153646,9.7193028 6.5153646,9.0578445 V 8.8924799 Q 4.5723308,10.132714 2.0091798,10.752831 L 1.6371095,10.050032 Q 4.4069662,9.3885737 6.4326823,8.1069982 6.35,7.7349279 6.2259765,7.4455399 4.5309896,8.5617508 2.1332032,9.1405268 L 1.7611329,8.4377273 Q 4.1589193,7.9416336 5.8952474,6.8667639 5.6885417,6.618717 5.4404948,6.3706701 4.1589193,7.2801753 2.1332032,7.6522456 L 1.7611329,6.908105 Q 3.497461,6.6600581 4.6963542,5.9572587 H 2.5879558 V 4.3036129 Q 2.339909,4.4689775 2.0918621,4.5930009 L 1.5957684,4.0142249 Q 2.629297,3.3941077 3.208073,2.8566728 3.786849,2.3192379 4.2829428,1.4924151 Z M 3.4147787,3.6834957 H 6.5153646 Q 6.928776,3.3527666 7.218164,2.9393551 H 4.2002605 Q 3.8695313,3.3114254 3.4147787,3.6834957 Z m 0,1.5709635 h 2.1083984 q 0.289388,-0.2480469 0.578776,-0.868164 H 3.4147787 Z M 7.0114583,4.3862952 Q 6.8460937,4.8823889 6.5567057,5.2544592 h 2.8111978 v -0.868164 z"
       style="font-size:10.58333302px;stroke-width:0.26458332"
       id="path4138" />
  </g>
</svg>
